HIERARCHY
ROOT Hips
{
 OFFSET 0.000000 0.000000 0.000000
 CHANNELS 6 Xposition Yposition Zposition Yrotation Xrotation Zrotation
 JOINT Chest
 {
  OFFSET 0.000000 9.581000 -0.001100
  CHANNELS 3 Yrotation Xrotation Zrotation
  JOINT Chest2
  {
   OFFSET 0.000000 9.561100 0.002200
   CHANNELS 3 Yrotation Xrotation Zrotation
   JOINT Chest3
   {
    OFFSET 0.000000 9.521100 0.000000
    CHANNELS 3 Yrotation Xrotation Zrotation
    JOINT Chest4
    {
     OFFSET 0.000000 9.511400 0.000000
     CHANNELS 3 Yrotation Xrotation Zrotation
     JOINT Neck
     {
      OFFSET 0.000000 14.375100 0.000000
      CHANNELS 3 Yrotation Xrotation Zrotation
      JOINT Head
      {
       OFFSET 0.000000 8.901200 0.004600
       CHANNELS 3 Yrotation Xrotation Zrotation
       End Site
       {
        OFFSET 0.000000 16.962200 0.002400
       }
      }
     }
     JOINT RightCollar
     {
      OFFSET -2.920100 9.518800 0.000000
      CHANNELS 3 Yrotation Xrotation Zrotation
      JOINT RightShoulder
      {
       OFFSET -13.664500 0.000000 0.000000
       CHANNELS 3 Yrotation Xrotation Zrotation
       JOINT RightElbow
       {
        OFFSET 0.000000 -29.999200 0.000000
        CHANNELS 3 Yrotation Xrotation Zrotation
        JOINT RightWrist
        {
         OFFSET 0.000000 -24.253600 0.000000
         CHANNELS 3 Yrotation Xrotation Zrotation
         End Site
         {
          OFFSET 0.000000 -17.918900 0.000000
         }
        }
       }
      }
     }
     JOINT LeftCollar
     {
      OFFSET 2.920100 9.518800 0.000000
      CHANNELS 3 Yrotation Xrotation Zrotation
      JOINT LeftShoulder
      {
       OFFSET 13.664500 0.000000 0.000000
       CHANNELS 3 Yrotation Xrotation Zrotation
       JOINT LeftElbow
       {
        OFFSET 0.000000 -29.999200 0.000000
        CHANNELS 3 Yrotation Xrotation Zrotation
        JOINT LeftWrist
        {
         OFFSET 0.000000 -24.253600 0.000000
         CHANNELS 3 Yrotation Xrotation Zrotation
         End Site
         {
          OFFSET 0.000000 -17.918900 0.000000
         }
        }
       }
      }
     }
    }
   }
  }
 }
 JOINT RightHip
 {
  OFFSET -7.797300 0.005300 0.000500
  CHANNELS 3 Yrotation Xrotation Zrotation
  JOINT RightKnee
  {
   OFFSET 0.000000 -40.663400 -0.000500
   CHANNELS 3 Yrotation Xrotation Zrotation
   JOINT RightAnkle
   {
    OFFSET 0.000000 -39.523700 -0.000900
    CHANNELS 3 Yrotation Xrotation Zrotation
    JOINT RightToe
    {
     OFFSET 0.000000 -6.418000 14.485300
     CHANNELS 3 Yrotation Xrotation Zrotation
     End Site
     {
      OFFSET 0.000000 -1.465200 6.326400
     }
    }
   }
  }
 }
 JOINT LeftHip
 {
  OFFSET 7.797300 0.005300 0.000500
  CHANNELS 3 Yrotation Xrotation Zrotation
  JOINT LeftKnee
  {
   OFFSET 0.000000 -40.663400 -0.000500
   CHANNELS 3 Yrotation Xrotation Zrotation
   JOINT LeftAnkle
   {
    OFFSET 0.000000 -39.523700 -0.000900
    CHANNELS 3 Yrotation Xrotation Zrotation
    JOINT LeftToe
    {
     OFFSET 0.000000 -6.418000 14.485300
     CHANNELS 3 Yrotation Xrotation Zrotation
     End Site
     {
      OFFSET 0.000000 -1.465200 6.326400
     }
    }
   }
  }
 }
}
MOTION
Frames: 8
Frame Time: 0.008333
-13.318968 126.912707 33.017155 -160.252533 -49.976092 -3.001189 -3.448016 25.847226 -1.849136 -0.495892 4.280423 -0.189235 -0.797696 6.813934 -0.319427 -2.701440 21.249819 -1.365432 5.309997 20.828056 4.002410 4.818503 -3.409148 3.105351 1.920555 3.143162 2.448171 3.262494 -7.612232 -5.176485 -114.226521 -69.098032 159.419986 7.739632 10.842991 -17.154851 -10.491166 -0.951111 -1.698499 -11.281880 -15.318315 10.655070 53.389733 -60.034582 -97.887255 3.442801 -13.182143 18.234399 -6.406991 -23.067324 -11.074033 -11.180648 78.369692 -12.639512 9.856364 -13.837908 4.241995 0.002432 -0.003734 0.001077 4.458295 5.726703 -1.608443 129.061273 65.169826 147.444147 10.827076 9.835528 3.456999 0.000974 -0.023021 0.000431
-13.318680 126.913617 33.017042 -160.251791 -49.982655 -3.002185 -3.435480 25.844251 -1.843662 -0.489009 4.270223 -0.186786 -0.803755 6.815494 -0.319995 -2.699715 21.250522 -1.361961 5.307136 20.798237 4.051163 4.798939 -3.434556 3.160420 1.915364 3.153525 2.448006 3.260206 -7.620013 -5.172701 -114.207103 -69.097411 159.405398 7.738491 10.842355 -17.157567 -10.498966 -0.941947 -1.700479 -11.264869 -15.326359 10.649683 53.375023 -60.040796 -97.878390 3.444831 -13.177807 18.233710 -6.419994 -23.061200 -11.076001 -11.176034 78.399757 -12.633326 9.866577 -13.974004 4.210966 0.000434 -0.003746 0.000192 4.464971 5.731469 -1.592956 129.074313 65.179357 147.463057 10.852573 9.868204 3.369433 -0.000981 -0.006862 -0.000434
-13.318242 126.914151 33.017162 -160.248388 -49.985778 -3.004926 -3.413769 25.827559 -1.825793 -0.503839 4.283975 -0.192609 -0.795473 6.804163 -0.317768 -2.710367 21.262703 -1.363543 5.309716 20.751159 4.096983 4.775577 -3.464735 3.214275 1.942097 3.127414 2.443626 3.228123 -7.591947 -5.163418 -114.221566 -69.092520 159.426168 7.737539 10.844886 -17.162183 -10.502427 -0.945090 -1.700097 -11.242310 -15.335819 10.644223 53.365143 -60.052565 -97.876674 3.465609 -13.167624 18.227970 -6.424310 -23.061260 -11.080398 -11.189729 78.433103 -12.639461 9.886315 -14.085853 4.183240 0.001799 0.000293 0.000797 4.466819 5.736549 -1.582816 129.082641 65.187496 147.473235 10.853502 9.866880 3.359021 -0.002217 -0.004543 -0.000982
-13.317932 126.913839 33.017992 -160.247284 -49.982155 -3.003199 -3.410558 25.818913 -1.823807 -0.497540 4.274868 -0.190099 -0.793119 6.798152 -0.316762 -2.703767 21.255413 -1.360178 5.293131 20.751235 4.121451 4.747597 -3.531022 3.285564 1.939535 3.137501 2.444798 3.223118 -7.582411 -5.154395 -114.231488 -69.102557 159.425776 7.747019 10.831906 -17.157416 -10.502953 -0.929769 -1.702211 -11.237010 -15.342672 10.636681 53.357344 -60.065105 -97.869037 3.470692 -13.158760 18.220620 -6.425186 -23.064437 -11.086191 -11.206618 78.457855 -12.650353 9.910900 -14.214511 4.153780 0.003976 -0.000072 0.001761 4.467289 5.738008 -1.577750 129.087725 65.190811 147.474264 10.837901 9.838627 3.396734 -0.003966 -0.008900 -0.001757
-13.317726 126.913402 33.018897 -160.251375 -49.977528 -2.996543 -3.404534 25.809012 -1.822625 -0.478477 4.255241 -0.181014 -0.804670 6.803824 -0.321404 -2.675167 21.227506 -1.350300 5.253256 20.725161 4.177855 4.712623 -3.558195 3.328098 1.916152 3.169151 2.450358 3.228637 -7.576550 -5.148030 -114.287615 -69.111718 159.476939 7.739313 10.825465 -17.170896 -10.525720 -0.897876 -1.707182 -11.231039 -15.344612 10.630373 53.361305 -60.080729 -97.871818 3.453117 -13.150700 18.213786 -6.426623 -23.063967 -11.093161 -11.191847 78.469452 -12.634501 9.930022 -14.354301 4.124013 0.001990 -0.004225 0.000882 4.469293 5.738293 -1.575906 129.097696 65.195478 147.485451 10.835048 9.831697 3.391100 -0.002323 -0.009233 -0.001029
-13.318308 126.914294 33.018793 -160.245888 -49.983011 -2.995047 -3.398302 25.806108 -1.818183 -0.476346 4.255242 -0.181129 -0.803513 6.795232 -0.319979 -2.680581 21.234342 -1.352770 5.235043 20.661307 4.228123 4.673879 -3.590299 3.368725 1.920109 3.167530 2.457418 3.244461 -7.569733 -5.146682 -114.394819 -69.093173 159.586067 7.745892 10.825227 -17.184187 -10.491841 -0.905615 -1.700013 -11.256089 -15.338436 10.618640 53.378238 -60.105088 -97.887637 3.459439 -13.140233 18.211850 -6.429538 -23.066847 -11.104279 -11.216535 78.504644 -12.658418 9.937784 -14.437331 4.106560 0.001262 0.002202 0.000559 4.465112 5.746257 -1.576725 129.097727 65.199707 147.487915 10.848907 9.858021 3.317000 -0.004810 -0.003732 -0.002131
-13.319611 126.914140 33.019757 -160.236662 -49.980227 -2.990938 -3.389087 25.796166 -1.813616 -0.488703 4.259113 -0.186352 -0.779732 6.778797 -0.311442 -2.702234 21.245316 -1.359265 5.219943 20.641066 4.249492 4.621118 -3.669844 3.434183 1.923667 3.168421 2.464794 3.268342 -7.567638 -5.155696 -114.433926 -69.089036 159.593958 7.746988 10.821741 -17.181298 -10.485865 -0.900966 -1.695659 -11.265714 -15.337929 10.613813 53.402491 -60.138384 -97.903089 3.467475 -13.135671 18.212405 -6.433211 -23.066165 -11.118843 -11.233706 78.524993 -12.673042 9.937170 -14.571690 4.074549 0.000830 -0.000943 0.000368 4.457701 5.744651 -1.586612 129.096727 65.196205 147.494827 10.861801 9.886550 3.221704 -0.004637 0.006720 -0.002055
-13.319619 126.913976 33.020271 -160.232188 -49.977378 -2.992361 -3.387054 25.791581 -1.810884 -0.488323 4.258186 -0.185994 -0.772624 6.776666 -0.308064 -2.698107 21.239095 -1.355331 5.194845 20.624815 4.267455 4.554300 -3.746258 3.496581 1.920025 3.173623 2.466757 3.321540 -7.569594 -5.166356 -114.491342 -69.088184 159.592818 7.741885 10.827569 -17.187038 -10.485947 -0.896290 -1.694484 -11.262552 -15.345742 10.610094 53.441792 -60.177549 -97.917724 3.500436 -13.118528 18.188334 -6.434361 -23.063041 -11.131189 -11.253828 78.538174 -12.682742 9.954198 -14.695468 4.036705 -0.001161 -0.003478 -0.000515 4.453328 5.746619 -1.582384 129.096252 65.195502 147.498891 10.843961 9.873729 3.211574 -0.001851 0.005883 -0.000820
